<svg xmlns="http://www.w3.org/2000/svg" viewBox="-7623.478 -3362.478 29.478 29.478">
  <defs>
    <style>
      .cls-1 {
        fill: #e9573f;
      }
    </style>
  </defs>
  <path id="bell" class="cls-1" d="M27.636,27.636h-9.73a3.765,3.765,0,0,1-1.324,1.339,3.621,3.621,0,0,1-3.685,0,3.765,3.765,0,0,1-1.324-1.339H1.842a1.757,1.757,0,0,1-1.31-.547A1.794,1.794,0,0,1,0,25.793V23.951q1.526,0,2.605-2.159a11.547,11.547,0,0,0,1.08-5.21V12.9A10.639,10.639,0,0,1,6.319,5.743,10.785,10.785,0,0,1,12.9,2.015V1.842a1.757,1.757,0,0,1,.547-1.31,1.842,1.842,0,0,1,2.591,0,1.757,1.757,0,0,1,.547,1.31v.173a10.785,10.785,0,0,1,6.578,3.728A10.639,10.639,0,0,1,25.793,12.9v3.685a11.547,11.547,0,0,0,1.08,5.21q1.08,2.159,2.605,2.159v1.842a1.794,1.794,0,0,1-.533,1.3A1.757,1.757,0,0,1,27.636,27.636Z" transform="translate(-7623.478 -3362.478)"/>
</svg>
