<svg xmlns="http://www.w3.org/2000/svg" viewBox="-3856.333 -539.862 82.358 78.691">
  <defs>
    <style>
      .cls-1 {
        opacity: 0.75;
      }

      .cls-2 {
        fill: #fb8824;
        fill-rule: evenodd;
      }
    </style>
  </defs>
  <g id="VisualEditor_-_Icon_-_History" class="cls-1" transform="translate(-3857.582 -541.947)">
    <g id="history" transform="translate(1.248 2.085)">
      <path id="clock_hands" class="cls-2" d="M38.784,43.636S29.319,35.957,22.89,31.484c2.857-9.512,6.754-26.029,6.754-26.029S12.382,26.738,10.291,32.04c-1.837,4.635,5.79,8.766,9.31,6.659C27.141,40.886,38.784,43.636,38.784,43.636Z" transform="translate(24.759 7.919)"/>
      <path id="arrow" class="cls-2" d="M44.258,2.085A39.314,39.314,0,0,0,10.07,60.874l-8.822,8.1H23.821V48.258l-8.2,7.524a31.676,31.676,0,0,1-3.437-14.346A32.079,32.079,0,1,1,44.266,73.514a31.7,31.7,0,0,1-12.751-2.691L28.21,77.308a38.933,38.933,0,0,0,16.053,3.468,39.346,39.346,0,0,0,0-78.691Z" transform="translate(-1.248 -2.085)"/>
    </g>
  </g>
</svg>
