<svg xmlns="http://www.w3.org/2000/svg" viewBox="-2484 -7919 26.824 26.824">
  <defs>
    <style>
      .cls-1 {
        fill: #949494;
      }
    </style>
  </defs>
  <path id="Home-icon" class="cls-1" d="M25.9,11.736,23.471,9.306V3.353a1.681,1.681,0,0,0-1.677-1.677H20.118a1.681,1.681,0,0,0-1.677,1.677V4.28L15.089.93A2.352,2.352,0,0,0,13.412,0a2.352,2.352,0,0,0-1.677.93L.922,11.736A2.321,2.321,0,0,0,0,13.412a1.649,1.649,0,0,0,1.677,1.677H3.353V25.148A1.681,1.681,0,0,0,5.03,26.824h5.03V18.442a1.681,1.681,0,0,1,1.677-1.677h3.353a1.681,1.681,0,0,1,1.677,1.677v8.383h5.03a1.681,1.681,0,0,0,1.677-1.677V15.089h1.677a1.649,1.649,0,0,0,1.677-1.677A2.321,2.321,0,0,0,25.9,11.736Z" transform="translate(-2484 -7919)"/>
</svg>
