<svg xmlns="http://www.w3.org/2000/svg" viewBox="0 0 309.108 309.068">
  <defs>
    <style>
      .cls-1 {
        fill: #f1a103;
      }
    </style>
  </defs>
  <path id="home-grey" class="cls-1" d="M298.413,135.218l-27.986-28V38.632A19.368,19.368,0,0,0,251.105,19.31H231.8a19.368,19.368,0,0,0-19.322,19.322V49.313l-38.621-38.6A27.1,27.1,0,0,0,154.531,0a27.1,27.1,0,0,0-19.322,10.715L10.626,135.218A26.742,26.742,0,0,0,0,154.528,19,19,0,0,0,19.324,173.85h19.31v115.9a19.368,19.368,0,0,0,19.322,19.31H115.91V212.482a19.368,19.368,0,0,1,19.322-19.322h38.632a19.368,19.368,0,0,1,19.322,19.322v96.586H251.14a19.368,19.368,0,0,0,19.322-19.322V173.85h19.322a19,19,0,0,0,19.322-19.322,26.742,26.742,0,0,0-10.692-19.31Z" transform="translate(0)"/>
</svg>
