<svg xmlns="http://www.w3.org/2000/svg" xmlns:xlink="http://www.w3.org/1999/xlink" viewBox="-8688.309 -3226.077 43.165 48.984">
  <defs>
    <style>
      .cls-1 {
        fill: #f1a103;
      }

      .cls-2 {
        filter: url(#Path_9);
      }
    </style>
    <filter id="Path_9" x="-8688.309" y="-3226.077" width="43.165" height="48.984" filterUnits="userSpaceOnUse">
      <feOffset dy="3" input="SourceAlpha"/>
      <feGaussianBlur stdDeviation="3" result="blur"/>
      <feFlood flood-opacity="0.161"/>
      <feComposite operator="in" in2="blur"/>
      <feComposite in="SourceGraphic"/>
    </filter>
  </defs>
  <g class="cls-2" transform="matrix(1, 0, 0, 1, 0, 0)">
    <path id="Path_9-2" data-name="Path 9" class="cls-1" d="M71.35,24.111l-7.42-12.56V5.29a2.725,2.725,0,0,0-.9-5.29H55.809a2.725,2.725,0,0,0-.9,5.29v6.261L47.487,24.11a4.511,4.511,0,0,0-.057,4.571,4.457,4.457,0,0,0,3.926,2.3H67.481a4.456,4.456,0,0,0,3.926-2.3A4.511,4.511,0,0,0,71.35,24.111ZM55.809,1.815h7.219a.908.908,0,0,1,0,1.815H55.809a.908.908,0,0,1,0-1.815Zm.776,10.449a.912.912,0,0,0,.127-.464V5.446h5.414V7.262h-.9a.908.908,0,0,0,0,1.815h.9v1.815h-.9a.908.908,0,0,0,0,1.815h1.291l3.958,6.7a5.7,5.7,0,0,1-2.543.683A6.757,6.757,0,0,1,60.018,18.5h0a8.5,8.5,0,0,0-5.111-2.045,6.3,6.3,0,0,0-.834.057ZM69.837,27.787a2.674,2.674,0,0,1-2.356,1.382H51.356A2.674,2.674,0,0,1,49,27.787a2.708,2.708,0,0,1,.036-2.746l3.7-6.262a5.342,5.342,0,0,1,2.171-.5,6.757,6.757,0,0,1,3.91,1.585,8.506,8.506,0,0,0,5.113,2.046,7.456,7.456,0,0,0,3.467-.934l2.4,4.068,0,0A2.706,2.706,0,0,1,69.837,27.787Z" transform="translate(-8726.14 -3220.08)"/>
  </g>
</svg>
