<svg xmlns="http://www.w3.org/2000/svg" viewBox="-2484.003 -8032.03 31.006 31.006">
  <defs>
    <style>
      .cls-1 {
        fill: #949494;
      }
    </style>
  </defs>
  <path id="Path_37" data-name="Path 37" class="cls-1" d="M21.245,0a9.753,9.753,0,0,0-9.761,9.761,12.029,12.029,0,0,0,.574,3.445L0,25.264v5.742H5.742V27.561H9.187V24.116h3.445L17.8,18.948a10.827,10.827,0,0,0,3.445.574A9.761,9.761,0,0,0,21.245,0Zm2.871,10.335A3.384,3.384,0,0,1,20.671,6.89a3.445,3.445,0,1,1,6.89,0A3.384,3.384,0,0,1,24.116,10.335Z" transform="matrix(-1, 0, 0, -1, -2452.997, -8001.024)"/>
</svg>
