<svg xmlns="http://www.w3.org/2000/svg" viewBox="-3640.502 -641.502 31.076 31.076">
  <defs>
    <style>
      .cls-1 {
        fill: #fb8824;
      }
    </style>
  </defs>
  <path id="pen-8" class="cls-1" d="M27.192,10.752v16.44a3.885,3.885,0,0,1-3.885,3.885H3.885A3.885,3.885,0,0,1,0,27.192V7.769A3.885,3.885,0,0,1,3.885,3.885H20.324L16.441,7.769H3.885V27.192H23.307V14.637ZM24.21,2.746,22.837,4.12l4.12,4.121L28.33,6.867ZM26.957,0,25.583,1.373,29.7,5.494,31.076,4.12ZM9.1,17.856l4.12,4.12L25.583,9.615l-4.12-4.121ZM7.769,23.307h3.885L7.769,19.423Z" transform="translate(-3640.502 -641.502)"/>
</svg>
