<svg xmlns="http://www.w3.org/2000/svg" viewBox="-3642.977 -571.399 30.54 37.241">
  <defs>
    <style>
      .cls-1 {
        fill: #fb8824;
      }
    </style>
  </defs>
  <path id="Path_28" data-name="Path 28" class="cls-1" d="M75.828,9.478v24.18a3.586,3.586,0,0,1-3.582,3.582H55.9a3.586,3.586,0,0,1-3.582-3.582V17.936A8.811,8.811,0,0,0,55.006,18V33.659a.9.9,0,0,0,.9.9H72.246a.9.9,0,0,0,.9-.9V9.478a.9.9,0,0,0-.9-.9H63.38A9.474,9.474,0,0,0,62.988,5.9h9.257A3.586,3.586,0,0,1,75.828,9.478ZM53.737,16.9a8.449,8.449,0,1,1,8.449-8.449A8.458,8.458,0,0,1,53.737,16.9Zm0-1.791a6.658,6.658,0,1,0-6.658-6.657A6.665,6.665,0,0,0,53.737,15.106ZM58.8,9.345a.9.9,0,1,0,0-1.791H54.632V4.038a.9.9,0,1,0-1.791,0V8.449a.9.9,0,0,0,.9.9ZM69.14,16.606h-9.7a.9.9,0,1,0,0,1.791h9.7a.9.9,0,1,0,0-1.791Zm.016,5.432h-9.7a.9.9,0,1,0,0,1.791h9.7a.9.9,0,0,0,0-1.791Zm0,5.657h-9.7a.9.9,0,1,0,0,1.791h9.7a.9.9,0,0,0,0-1.791Z" transform="translate(-3688.265 -571.399)"/>
</svg>
