<svg xmlns="http://www.w3.org/2000/svg" viewBox="-3596.906 -1731 32.906 33.424">
  <defs>
    <style>
      .cls-1 {
        fill: #f09d3e;
      }
    </style>
  </defs>
  <g id="_02655cf96b0dd753ba9402e5c345030a" data-name="02655cf96b0dd753ba9402e5c345030a" transform="translate(-3606.906 -1733.175)">
    <path id="Path_32" data-name="Path 32" class="cls-1" d="M25.869,434.713l-7.249-3.677a.577.577,0,0,0-.5-.007h0l-7.746,3.68a.584.584,0,0,0-.369.544v10.04h0a.58.58,0,0,0,.3.51l7.5,4.11,0,0h0l0,0,0,0,0,0,0,0,0,0,0,0,0,0,0,0h.007l0,0,.007,0h.007l0,0,.01,0,0,0,.007,0,0,0,0,0h.007l.007,0,0,0h.007l.007,0,.007,0,.007,0,0,0h.01l.007,0h.013l0,0H18l.007,0h.3l.007,0h.027l.007,0h.013l.007,0h.01l0,0,.007,0,.007,0,0,0H18.4l0,0,.007,0h.007l0,0,.007,0,.007,0,0,0,.01,0,0,0h.007l0,0,0,0h.007l.007,0,0,0,0,0,0,0,0,0,0,0,0,0,0,0h0l0,0,7.5-4.11a.58.58,0,0,0,.3-.51h0v-10.04A.806.806,0,0,0,25.869,434.713ZM18.354,432.2l1.632.826L13.7,436.3l-1.85-1.014Zm-.813,16.248-6.387-3.5v-8.717L13.1,437.3v1.927l1.444.682v-1.82l3,1.642v8.72Zm.574-9.724-2.888-1.582,6.346-3.311,2.837,1.44Z" transform="translate(0 -414.402)"/>
    <path id="Path_33" data-name="Path 33" class="cls-1" d="M522.272,434.713l-7.25-3.677a.577.577,0,0,0-.5-.007h0l-7.75,3.68a.584.584,0,0,0-.369.544v10.04h0a.58.58,0,0,0,.3.51l7.5,4.11,0,0h0l0,0,0,0,0,0,0,0,0,0,0,0,0,0,0,0h.007l0,0,.007,0h.007l0,0,.01,0,0,0,.007,0,0,0,0,0h.007l.007,0,0,0h.007l.007,0,.007,0,.007,0,0,0h.01l.007,0h.013l0,0h.034l.007,0h.292l.007,0h.027l.007,0h.013l.007,0h.01l0,0,.007,0,.007,0,0,0h.007l0,0,.007,0h.007l0,0,.007,0,.007,0,0,0,.01,0,0,0h.007l0,0,0,0h.007l.007,0,0,0,0,0,0,0,0,0,0,0,0,0,0,0h0l0,0,7.428-4.11a.58.58,0,0,0,.3-.51h0v-10.04A.58.58,0,0,0,522.272,434.713Zm-7.515-2.512,1.632.826L510.1,436.3l-1.85-1.014Zm-.816,16.248-6.383-3.5v-8.717l1.948,1.068v1.927l1.444.682v-1.82l3,1.642v8.72Zm.578-9.724-2.888-1.582,6.346-3.311,2.837,1.44Z" transform="translate(-479.732 -414.402)"/>
    <path id="Path_34" data-name="Path 34" class="cls-1" d="M279.269,5.913l-7.249-3.677a.577.577,0,0,0-.5-.007h0l-7.746,3.684a.584.584,0,0,0-.369.544V16.5h0a.58.58,0,0,0,.3.51l7.5,4.11,0,0h0l0,0,0,0,0,0,0,0,0,0,0,0,0,0,0,0h.007l0,0,.007,0h.007l0,0,.01,0,0,0,.007,0,0,0,0,0h.007l.007,0,0,0h.007l.007,0,.007,0,.007,0,0,0h.01l.007,0h.013l0,0h.034l.007,0h.3l.007,0h.027l.007,0h.013l.007,0h.01l0,0,.007,0,.007,0,0,0h.007l0,0,.007,0h.007l0,0,.007,0,.007,0,0,0,.01,0,0,0h.007l0,0,0,0h.007l.007,0,0,0,0,0,0,0,0,0,0,0,0,0,0,0h0l0,0L279.336,17a.58.58,0,0,0,.3-.51h0V6.454A.583.583,0,0,0,279.269,5.913Zm-7.1-2.31,1.632.826-6.286,3.277-1.85-1.014Zm-1.216,16.248-6.387-3.5V7.632L266.513,8.7v1.931l1.444.682V9.492l3,1.642v8.717Zm.568-9.922-2.888-1.582,6.346-3.311,2.837,1.44Z" transform="translate(-244.891)"/>
  </g>
</svg>
