<svg xmlns="http://www.w3.org/2000/svg" viewBox="-8683 -3005.4 31.616 26.413">
  <defs>
    <style>
      .cls-1 {
        fill: #bdc3c7;
      }

      .cls-2 {
        fill: #7f8c8d;
      }

      .cls-3 {
        fill: #2c3e50;
      }

      .cls-4 {
        fill: #34495e;
      }
    </style>
  </defs>
  <g id="Group_27" data-name="Group 27" transform="translate(-8756 -3387)">
    <path id="Path_13" data-name="Path 13" class="cls-1" d="M15.757,4.419a5.15,5.15,0,1,1-10.3,0,5.15,5.15,0,1,1,10.3,0Z" transform="translate(84.803 385.011)"/>
    <path id="Path_14" data-name="Path 14" class="cls-1" d="M16.271,864.643a8.786,8.786,0,0,0-3.7.729,9.458,9.458,0,0,0-5.5,7.6,2.021,2.021,0,0,0,2,2.083H23.48a2.021,2.021,0,0,0,2-2.083,9.459,9.459,0,0,0-5.5-7.6A8.786,8.786,0,0,0,16.271,864.643Z" transform="translate(79.14 -471.048)"/>
    <path id="Path_15" data-name="Path 15" class="cls-2" d="M15.757,4.419a5.15,5.15,0,1,1-10.3,0,5.15,5.15,0,1,1,10.3,0Z" transform="translate(71.597 385.011)"/>
    <path id="Path_16" data-name="Path 16" class="cls-2" d="M16.271,864.643a8.786,8.786,0,0,0-3.7.729,9.458,9.458,0,0,0-5.5,7.6,2.021,2.021,0,0,0,2,2.083H23.48a2.021,2.021,0,0,0,2-2.083,9.459,9.459,0,0,0-5.5-7.6A8.786,8.786,0,0,0,16.271,864.643Z" transform="translate(65.933 -471.048)"/>
    <path id="Path_17" data-name="Path 17" class="cls-3" d="M10.12,1041.1a12,12,0,0,0-7.057,9.641,2.576,2.576,0,0,0,2.559,2.641H24.11a2.576,2.576,0,0,0,2.559-2.641,12.006,12.006,0,0,0-7.058-9.641,5.409,5.409,0,0,1-4.746,3.038A5.408,5.408,0,0,1,10.12,1041.1Z" transform="translate(73.941 -645.369)"/>
    <path id="Path_18" data-name="Path 18" class="cls-4" d="M20.207,5.6A6.6,6.6,0,1,1,13.6-1,6.6,6.6,0,0,1,20.207,5.6Z" transform="translate(75.204 382.6)"/>
    <path id="Path_19" data-name="Path 19" class="cls-4" d="M14.866,11a11.879,11.879,0,0,0-11.8,10.565,2.572,2.572,0,0,0,2.559,2.641H24.11a2.572,2.572,0,0,0,2.559-2.641A11.879,11.879,0,0,0,14.866,11Z" transform="translate(73.941 382.486)"/>
  </g>
</svg>
